<svg version="1.1" id="Layer_1" xmlns="http://www.w3.org/2000/svg" xmlns:xlink="http://www.w3.org/1999/xlink" x="0px" y="0px"
	 width="100%" viewBox="0 0 435 400" enable-background="new 0 0 435 400" xml:space="preserve">
<path fill="#FFFFFF" opacity="0.000000" stroke="none" 
	d="
M501.000000,245.000000 
	C501.000000,329.333313 500.973236,413.166656 501.095978,496.999786 
	C501.100983,500.423950 500.423828,501.096954 497.000000,501.094696 
	C333.000092,500.986237 169.000122,500.986267 5.000242,501.094696 
	C1.576934,501.096954 0.903020,500.424194 0.905286,497.000122 
	C1.013783,333.000214 1.013753,169.000244 0.905353,5.000361 
	C0.903091,1.577311 1.575447,0.903006 4.999762,0.905272 
	C168.999649,1.013777 332.999603,1.013757 496.999512,0.905370 
	C500.422272,0.903108 501.101471,1.574489 501.096130,4.999730 
	C500.971863,84.833008 501.000000,164.666534 501.000000,245.000000 
z"/>
<path fill="#FFFFFF" opacity="1.000000" stroke="none" 
	d="
M26.130486,396.868591 
	C13.766665,397.179840 9.240469,392.085754 9.316446,379.829315 
	C9.513739,348.002441 9.387904,316.173615 9.389879,284.345551 
	C9.391100,264.682129 9.354095,245.018646 9.407612,225.355377 
	C9.429854,217.183060 12.240952,212.781204 18.321011,210.923691 
	C25.564716,208.710678 32.663967,212.804871 34.214527,220.263016 
	C34.683498,222.518753 34.743195,224.889740 34.744637,227.208084 
	C34.773392,273.533722 34.837662,319.859680 34.651409,366.184601 
	C34.633503,370.637634 35.777733,371.580109 40.110744,371.575378 
	C158.590988,371.446259 277.071442,371.450439 395.551697,371.562256 
	C399.713257,371.566193 401.098389,370.880554 401.078125,366.265045 
	C400.870361,318.940460 400.929688,271.614563 400.967926,224.289108 
	C400.976501,213.677521 409.386017,207.509995 418.587769,211.373688 
	C423.492798,213.433258 425.942657,217.468796 426.051147,222.737473 
	C426.184937,229.233704 426.096313,235.734543 426.099579,242.233398 
	C426.123108,289.058472 426.143372,335.883545 426.170380,382.708618 
	C426.175415,391.431366 420.910309,396.964813 412.544098,396.961945 
	C310.561707,396.926880 208.579330,396.885803 106.596939,396.851624 
	C79.934471,396.842682 53.272003,396.852051 26.130486,396.868591 
z"/>
<path fill="#cf3d3d" opacity="1.000000" stroke="none" 
	d="
M184.638367,44.705284 
	C212.751419,35.167336 240.520203,25.640177 268.157501,15.745780 
	C275.032928,13.284313 275.940674,15.081327 277.872223,20.567186 
	C312.600006,119.198257 347.265045,217.851410 382.046478,316.463562 
	C387.237549,331.181274 386.457886,329.238586 374.014923,333.701263 
	C346.674835,343.506775 319.232208,353.026184 291.835785,362.674744 
	C285.713745,364.830811 284.363556,364.178467 282.084473,357.703522 
	C254.705170,279.917694 227.330841,202.130081 199.957779,124.342026 
	C195.198151,110.816269 190.450363,97.286362 185.434784,83.545654 
	C183.148041,81.835526 182.715714,79.440865 181.948807,77.303490 
	C179.708649,71.060234 177.557129,64.785301 175.329361,58.536350 
	C172.011078,49.228466 174.091370,46.109169 184.638367,44.705284 
z"/>
<path fill="#FFFFFF" opacity="1.000000" stroke="none" 
	d="
M185.021057,44.382919 
	C184.601257,45.075520 184.199051,45.411964 183.737213,45.552780 
	C172.985184,48.831120 173.406235,48.925964 177.117096,59.748211 
	C179.724411,67.352066 182.387512,74.936783 185.099091,82.931488 
	C185.116028,85.496323 185.010452,87.659714 185.010239,89.823112 
	C185.001877,178.470490 185.003021,267.117859 185.002838,355.765228 
	C185.002823,365.067291 185.002533,365.067383 175.479248,365.067352 
	C144.819260,365.067261 114.159256,365.072083 83.499260,365.062897 
	C77.330452,365.061035 76.967850,364.699249 76.967545,358.515015 
	C76.962234,251.371658 76.962372,144.228302 76.967712,37.084953 
	C76.968033,30.800741 77.785065,30.004566 84.286629,30.002171 
	C115.113258,29.990816 145.939880,29.995016 176.766510,29.998631 
	C184.001190,29.999479 184.986740,31.017908 185.002701,38.436573 
	C185.006638,40.269588 185.008209,42.102615 185.021057,44.382919 
z"/>
<path fill="#333" opacity="1.000000" stroke="none" 
	d="
M320.925171,211.130936 
	C332.708710,244.838898 344.370239,278.175079 356.194916,311.453339 
	C357.295990,314.552063 357.293121,315.884308 353.760101,317.084747 
	C336.725494,322.872894 319.754456,328.858612 302.872772,335.078033 
	C299.152344,336.448669 298.168182,335.276337 297.029785,332.038574 
	C265.771637,243.135406 234.448975,154.254883 203.012955,65.414497 
	C201.574753,61.350018 202.421844,59.950798 206.450409,58.592125 
	C223.183868,52.948589 239.832794,47.040119 256.386139,40.888279 
	C259.894226,39.584549 260.913330,40.612965 261.955963,43.585632 
	C281.290222,98.709335 300.679047,153.813873 320.062744,208.920227 
	C320.281769,209.542938 320.584259,210.136261 320.925171,211.130936 
z"/>
<path fill="#333" opacity="1.000000" stroke="none" 
	d="
M99.741791,303.999817 
	C99.741791,220.840790 99.781357,138.181702 99.634399,55.522949 
	C99.626373,51.006058 100.707420,49.808296 105.258949,49.883816 
	C122.752518,50.174080 140.254944,50.107815 157.751129,49.911678 
	C161.250763,49.872452 162.105652,50.736126 162.101700,54.252422 
	C161.995346,149.076859 161.996017,243.901474 162.099930,338.725922 
	C162.103745,342.208191 161.305710,343.127380 157.771790,343.088379 
	C139.775635,342.889740 121.775414,342.914764 103.778465,343.072540 
	C100.550896,343.100861 99.597809,342.301514 99.659279,338.995270 
	C99.872993,327.500244 99.741814,315.998840 99.741791,303.999817 
z"/>
</svg>