<svg version="1.1" id="Layer_1" xmlns="http://www.w3.org/2000/svg" xmlns:xlink="http://www.w3.org/1999/xlink" x="0px" y="0px"
	 width="100%" viewBox="0 0 496 496" enable-background="new 0 0 496 496" xml:space="preserve">
<path fill="#ffffff" opacity="1.000000" stroke="none" 
	d="
M230.501587,226.444427 
	C228.367477,220.969055 226.229416,215.904785 224.390900,210.733978 
	C222.087708,204.256241 223.887878,199.475739 230.232376,196.863739 
	C244.689468,190.911880 259.269928,185.253571 273.872162,179.663818 
	C278.794403,177.779572 284.052155,180.421310 286.318237,185.943008 
	C292.059906,199.933350 297.610779,214.002701 303.157654,228.072113 
	C314.931641,257.936066 326.661102,287.817627 338.395447,317.697205 
	C343.987549,331.936493 349.634491,346.155273 355.088196,360.447571 
	C357.760651,367.451202 355.453918,372.405121 348.395844,375.236481 
	C335.124420,380.560333 321.828186,385.824615 308.493164,390.986725 
	C300.482086,394.087891 295.437195,391.911194 292.264648,383.862335 
	C274.448578,338.662506 256.708862,293.432526 238.952087,248.209320 
	C236.154678,241.084869 233.403259,233.942368 230.501587,226.444427 
M242.103241,210.072418 
	C241.553680,211.857498 242.579727,213.281052 243.179718,214.807053 
	C260.641571,259.219666 278.094055,303.635986 295.564606,348.045166 
	C299.007965,356.797943 302.519318,365.524017 306.104279,374.525970 
	C314.183502,371.423676 321.636017,368.602936 329.057098,365.701843 
	C337.926392,362.234619 337.914642,362.204895 334.908600,353.461609 
	C334.584686,352.519623 334.299622,351.562469 333.935486,350.636383 
	C319.327332,313.483673 304.714844,276.332703 290.096222,239.184082 
	C285.101593,226.491837 280.113068,213.797073 275.059631,201.128220 
	C274.302521,199.230103 273.831329,196.621475 270.617249,197.982941 
	C261.286987,201.935150 251.576523,204.961731 242.103241,210.072418 
z"/>
</svg>