<svg id="eXV5iP37HfQ1" xmlns="http://www.w3.org/2000/svg" xmlns:xlink="http://www.w3.org/1999/xlink" viewBox="0 0 500 500" shape-rendering="geometricPrecision" text-rendering="geometricPrecision"><path d="M501,245c0,84.333313-.026764,168.166656.095978,251.999786.005005,3.424164-.67215,4.097168-4.095978,4.09491-163.999908-.108459-327.999878-.108429-491.999758,0-3.423308.002258-4.097222-.670502-4.094956-4.094574.108497-163.999908.108467-327.999878.000067-491.999761-.002262-3.42305.670094-4.097355,4.094409-4.095089c163.999887.108505,327.999841.108485,491.99975.000098c3.42276-.002262,4.101959.669119,4.096618,4.09436C500.971863,84.833008,501,164.666534,501,245Z" transform="matrix(.785236 0 0 0.877321 79.349608 39.619203)" fill="#fff"/><path d="M26.130486,396.868591c-12.363821.311249-16.890017-4.782837-16.81404-17.039276.197293-31.826874.071458-63.6557.073433-95.483764.001221-19.663422-.035784-39.326905.017733-58.990174.022242-8.172317,2.83334-12.574173,8.913399-14.431686c7.243705-2.213013,14.342956,1.88118,15.893516,9.339325.468971,2.255737.528668,4.626724.53011,6.945068.028755,46.325638.093025,92.651596-.093228,138.976517-.017906,4.453033,1.126324,5.395508,5.459335,5.390777c118.480244-.129119,236.960698-.124939,355.440953-.013122c4.16156.003937,5.546692-.681702,5.526428-5.297211-.207764-47.324585-.148437-94.650482-.110199-141.975937.008575-10.611587,8.418091-16.779113,17.619843-12.91542c4.905029,2.05957,7.354888,6.095108,7.463378,11.363785.13379,6.496231.045166,12.99707.048432,19.495925.023529,46.825074.043793,93.650147.070801,140.47522.005035,8.722748-5.260071,14.256195-13.626282,14.253327-101.982391-.035065-203.964768-.076142-305.947159-.110321-26.662468-.008942-53.324936.000427-80.466453.016967Z" transform="matrix(1.040748 0 0 1.079134 17.476389 39.191328)" fill="#060606"/><path d="M184.638367,44.705284c28.113052-9.537948,55.881836-19.065107,83.519134-28.959504c6.875427-2.461467,7.783173-.664453,9.714722,4.821406c34.727783,98.631071,69.392822,197.284224,104.174255,295.896376c5.191071,14.717712,4.411408,12.775024-8.031555,17.237701-27.340088,9.805512-54.782715,19.324921-82.179138,28.973481-6.12204,2.156067-7.472229,1.503723-9.751312-4.971222-27.379303-77.785828-54.753632-155.573441-82.126694-233.361496-4.759628-13.525757-9.507416-27.055664-14.522995-40.796372-2.286743-1.710128-2.71907-4.104789-3.485977-6.242164-2.240158-6.243256-4.391678-12.518189-6.619446-18.76714-3.318283-9.307884-1.237991-12.427181,9.309006-13.831066Z" transform="matrix(1.040748 0 0 1.079134 20.940847 38.241718)" fill="#f62222"/><path d="M185.021057,44.382919c-.4198.692601-.822006,1.029045-1.283844,1.169861-10.752029,3.27834-10.330978,3.373184-6.620117,14.195431c2.607315,7.603855,5.270416,15.188572,7.981995,23.183277.016937,2.564835-.088639,4.728226-.088852,6.891624-.008362,88.647378-.007218,177.294747-.007401,265.942116-.000015,9.302063-.000305,9.302155-9.52359,9.302124-30.659988-.000091-61.319992.004731-91.979988-.004455-6.168808-.001862-6.53141-.363648-6.531715-6.547882-.005311-107.143357-.005173-214.286713.000167-321.430062.000321-6.284212.817353-7.080387,7.318917-7.082782c30.826629-.011355,61.653251-.007155,92.479881-.00354c7.23468.000848,8.22023,1.019277,8.236191,8.437942.003937,1.833015.005508,3.666042.018356,5.946346Z" transform="matrix(1.040748 0 0 1.079134 23.572463 36.835433)" fill="#020202"/><path d="M320.925171,211.130936c11.783539,33.707962,23.445068,67.044143,35.269745,100.322403c1.101074,3.098724,1.098205,4.430969-2.434815,5.631408-17.034607,5.788147-34.005645,11.773865-50.887329,17.993286-3.720428,1.370636-4.70459.198304-5.842987-3.039459-31.258148-88.903168-62.58081-177.783691-94.01683-266.624077-1.438202-4.064479-.591111-5.463699,3.437454-6.822372c16.733459-5.643536,33.382385-11.552006,49.93573-17.703846c3.508087-1.30373,4.527191-.275314,5.569824,2.697353c19.334259,55.123703,38.723084,110.228241,58.106781,165.334595.219025.622711.521515,1.216034.862427,2.210709Z" transform="matrix(1.040748 0 0 1.079134 20.694779 39.601642)" fill="#fffefe"/><path d="M99.741791,303.999817c0-83.159027.039566-165.818115-.107392-248.476868-.008026-4.516891,1.073021-5.714653,5.62455-5.639133c17.493569.290264,34.995995.223999,52.49218.027862c3.499634-.039226,4.354523.824448,4.350571,4.340744-.106354,94.824437-.105683,189.649052-.00177,284.4735.003815,3.482269-.79422,4.401458-4.32814,4.362457-17.996155-.198639-35.996376-.173615-53.993325-.015839-3.227569.028321-4.180656-.771026-4.119186-4.07727.213714-11.495026.082535-22.99643.082512-34.995453Z" transform="matrix(1.040748 0 0 1.079134 23.579156 36.918258)" fill="#fff"/></svg>
