<svg id="_0342_teacher" xmlns="http://www.w3.org/2000/svg" viewBox="0 0 500 500" data-imageid="teacher-35" imageName="Teacher" class="illustrations_image" style="width: 215px;"><defs><style>.cls-1_teacher-35{fill:#fff;}.cls-2_teacher-35{fill:#f4a28c;}.cls-3_teacher-35{fill:#a5a5a5;}.cls-4_teacher-35{opacity:.58;}.cls-4_teacher-35,.cls-5_teacher-35,.cls-6_teacher-35,.cls-7_teacher-35,.cls-8_teacher-35{fill:none;}.cls-9_teacher-35{fill:#ce8172;}.cls-10_teacher-35{fill:#e6e6e6;}.cls-5_teacher-35{opacity:.73;}.cls-6_teacher-35{opacity:.08;}.cls-7_teacher-35{opacity:.31;}.cls-8_teacher-35{opacity:.3;}.cls-11_teacher-35{fill:#24285b;}.cls-12_teacher-35{fill:#000001;}.cls-13_teacher-35{fill:#ffd200;}.cls-14_teacher-35{fill:#68e1fd;}</style></defs><g id="sd_teacher-35" class="cls-8_teacher-35"><path class="cls-10_teacher-35" d="m130.16,65.98c-48.06,23.22-101.22,106.35-108.25,177.56-5.92,60.01,8.23,126.32,91.54,145.21,162.12,36.76,313.95,47.24,352.71-51.94,38.76-99.18-13.47-251.22-90.28-291.43-58.47-30.61-151.86-24.74-245.73,20.6Z"/></g><g id="board_teacher-35"><rect class="cls-3_teacher-35" x="88.83" y="261.69" width="355.58" height="12.25" rx="4.35" ry="4.35"/><rect class="cls-10_teacher-35" x="102.53" y="77.26" width="334.3" height="184.42"/><rect class="cls-3_teacher-35" x="164.37" y="112.5" width="151.82" height="5.4"/><rect class="cls-3_teacher-35" x="324.11" y="112.5" width="66.37" height="5.4"/><rect class="cls-3_teacher-35" x="170.05" y="132.25" width="52.98" height="5.4"/><rect class="cls-3_teacher-35" x="230.95" y="132.25" width="138.45" height="5.4"/><rect class="cls-3_teacher-35" x="183.45" y="152" width="98.04" height="5.4"/><rect class="cls-3_teacher-35" x="287.57" y="152" width="102.91" height="5.4"/><rect class="cls-3_teacher-35" x="164.37" y="171.75" width="88.49" height="5.4"/><rect class="cls-3_teacher-35" x="259.56" y="171.75" width="99.86" height="5.4"/><rect class="cls-3_teacher-35" x="209.02" y="191.5" width="118.74" height="5.4"/><rect class="cls-3_teacher-35" x="167.62" y="191.5" width="35.32" height="5.4"/><rect class="cls-3_teacher-35" x="336.9" y="191.5" width="38.99" height="5.4"/><polygon class="cls-3_teacher-35" points="175.73 211.25 175.73 216.66 298.54 216.66 298.54 211.42 304.02 211.42 304.02 216.66 390.48 216.66 390.48 211.25 175.73 211.25"/><path class="cls-13_teacher-35" d="m346.09,255.03h44.15v4.26c0,1.32-1.07,2.39-2.39,2.39h-39.37c-1.32,0-2.39-1.07-2.39-2.39v-4.26h0Z"/><path class="cls-1_teacher-35" d="m350.83,246.47h34.68c1.02,0,1.86.83,1.86,1.86v6.7h-38.39v-6.7c0-1.02.83-1.86,1.86-1.86Z"/></g><g id="table_teacher-35"><rect class="cls-3_teacher-35" x="310.16" y="327.68" width="154.4" height="145.26"/><g class="cls-4_teacher-35"><path class="cls-14_teacher-35 targetColor" d="m436.24,311.25s-13.49-3.68-16.43-16.24c0,0,20.9-4.23,21.5,17.35l-5.07-1.11Z" style="fill: rgb(193, 77, 77);"/></g><g class="cls-5_teacher-35"><path class="cls-14_teacher-35 targetColor" d="m437.89,309.91s-9.43-14.9-1.13-28.83c0,0,15.89,10.09,8.83,28.87l-7.7-.03Z" style="fill: rgb(193, 77, 77);"/></g><path class="cls-14_teacher-35 targetColor" d="m440.32,309.92s4.98-15.74,20.03-18.72c0,0,2.82,10.22-9.75,18.76l-10.29-.04Z" style="fill: rgb(193, 77, 77);"/><polygon class="cls-11_teacher-35" points="430.54 309.57 433.27 328.28 450.5 328.35 453.04 309.66 430.54 309.57"/><rect class="cls-13_teacher-35" x="336.48" y="318.96" width="70.63" height="9.39"/><rect class="cls-11_teacher-35" x="342.83" y="309.57" width="70.63" height="9.39"/></g><g id="teacher_teacher-35"><polygon class="cls-2_teacher-35" points="138.83 297.07 151.32 459.49 140.98 463.18 98.48 311.48 138.83 297.07"/><path class="cls-14_teacher-35 targetColor" d="m150.92,457.12s6.83,7.15,14.59,6.03c7.76-1.12,9.95,9.79-2.7,9.84-4.83.02-8.74-.38-11.74-.89-3.57-.6-7.14.12-10.54,1.38-1.06.39-2.32.26-3.71-1.09-3.96-3.84,3.87-14.3,3.87-14.3l10.23-.97Z" style="fill: rgb(193, 77, 77);"/><polygon class="cls-2_teacher-35" points="120.8 301.54 77.95 458.7 66.98 458.7 77.95 301.54 120.8 301.54"/><path class="cls-14_teacher-35 targetColor" d="m77.58,457.12s6.83,7.15,14.59,6.03c7.76-1.12,9.95,9.79-2.7,9.84-4.83.02-8.74-.38-11.74-.89-3.57-.6-7.14.12-10.54,1.38-1.06.39-2.32.26-3.71-1.09-3.96-3.84,3.87-14.3,3.87-14.3l10.23-.97Z" style="fill: rgb(193, 77, 77);"/><path class="cls-11_teacher-35" d="m139.33,275.65s31.72,137.63,34.4,160.44H46.92s10.83-148.15,25.14-163.05l67.27,2.61Z"/><path class="cls-2_teacher-35" d="m94.38,160.7c13.51-16.65,40.38-13.57,49.17,5.99,2.41,5.36,4.07,12.11,4.43,20.59,1.83,42.39,23.73,65.5,43.8,58.2,20.08-7.3,29.81-42.74,29.81-42.74,0,0,16.43-11.71,20.08,0,3.65,11.71-11.56,11.79-11.56,11.79,0,0-19.51,114.64-104.65,41.29-53.83-46.38-44.92-78.08-31.09-95.12Z"/><g class="cls-6_teacher-35"><path class="cls-12_teacher-35" d="m94.38,160.7c13.51-16.65,40.38-13.57,49.17,5.99,2.41,5.36,4.07,12.11,4.43,20.59,1.83,42.39,23.73,65.5,43.8,58.2,20.08-7.3,29.81-42.74,29.81-42.74,0,0,16.43-11.71,20.08,0,3.65,11.71-11.56,11.79-11.56,11.79,0,0-19.51,114.64-104.65,41.29-53.83-46.38-44.92-78.08-31.09-95.12Z"/></g><path class="cls-2_teacher-35" d="m117.89,104.55s3.86,9.17,4.3,15.95c.18,2.75-1.95,5.16-4.7,5.3-3.42.17-8.09-.59-10.76-5.25l-5.49-7.35s-3.28-4.73.82-10.29c4.1-5.56,13.77-4.05,15.84,1.65Z"/><polygon class="cls-2_teacher-35" points="102.12 112.92 98.29 145.28 116.52 147.43 111.95 122.83 102.12 112.92"/><path class="cls-2_teacher-35" d="m120.03,110.45l3.81,2.8c.94.69.84,2.13-.18,2.68l-3.4,1.85-.23-7.33Z"/><g class="cls-7_teacher-35"><path class="cls-9_teacher-35" d="m112.36,124.91s-2.51-.24-4.95-1.95c0,0-2.06,11.45,6.81,12.1l-1.86-10.14Z"/></g><path class="cls-2_teacher-35" d="m109.24,114.75s-1.24-3.62-3.89-2.46-.88,6.41,3,5.7l.89-3.24Z"/><path class="cls-11_teacher-35" d="m115.77,104.75c-2.02,1.33-4.86,2.58-8.85,3.59,0,0,2.31,10.99-4.75,16.88,0,0-13.93-12.11-6.92-21.88,5.87-8.18,9.95-14.98,18.86-11.75,5.7,2.07,6.72,9.83,1.66,13.17Z"/><circle class="cls-11_teacher-35" cx="88.22" cy="101.13" r="9.89"/><path class="cls-2_teacher-35" d="m109.28,113.65s-2.08-3.92-5.09-1.95c-3.01,1.97-.99,6.74,3.88,6.95l1.21-5Z"/><path class="cls-14_teacher-35 targetColor" d="m98.29,145.28l8.1.33c9.42.38,18.6,3.05,26.72,7.84,16.86,9.94,42.42,29.28,38.88,53.62-5.22,35.92-32.66,68.58-32.66,68.58l-67.27-2.61s-56.61-130.77,26.23-127.76Z" style="fill: rgb(193, 77, 77);"/><g class="cls-6_teacher-35"><path class="cls-12_teacher-35" d="m90.62,158.67s36.23,25.97,14.46,71.8c-21.77,45.83,5.63,44.07,5.63,44.07l-38.65-1.5-6.28-16.62,24.84-97.75Z"/></g><path class="cls-13_teacher-35" d="m114.69,285.32l-34.63,43.49s34.85,24.51,35.38,25.56,32.81-45.39,32.81-45.39l-33.57-23.66Z"/><path class="cls-2_teacher-35" d="m65.78,155.33s-13.62,14.91-21,39.74c-7.38,24.82-18.79,62.68-14.76,77.97,2.89,10.98,18.59,19.6,27.27,25.31,10.49,6.89,23.53,16.94,35.88,19.47,3.9.8,7.88,1.6,11.84,1.13,3.95-.47,7.95-2.44,9.83-5.95.54-1.01.9-2.15.78-3.28-.31-2.96-3.47-4.61-6.22-5.75-2.37-.98-5.5-1.32-7.87-2.3.47-.89,2.6-2.82,3.48-3.31s1.79-2.13,1.68-3.13c-.17-1.53-2.64-.08-4.17.09-6.36.7-12.06,2.68-17.47-1.13-3.55-2.5-6.99-5.17-10.3-7.98-4.39-3.74-16.27-12.92-13.2-20.01,4.23-9.76,47.95-67.61,45.11-87.48s-19.88-38.96-40.88-23.38Z"/><rect class="cls-11_teacher-35" x="255.33" y="127.69" width="2.35" height="97.18" transform="translate(164.74 -121.12) rotate(38.35)"/><polygon class="cls-1_teacher-35" points="118.49 297.07 113.73 302.83 130.57 315.05 135.14 309.08 118.49 297.07"/></g></svg>