<svg id="Layer_1" data-name="Layer 1" xmlns="http://www.w3.org/2000/svg" viewBox="0 0 400 300" data-imageid="boss-two-color" imageName="Boss" class="illustrations_image" style="width: 162px;"><ellipse cx="215.91" cy="256.26" rx="118.98" ry="12.46" fill="#e6e6e6" opacity="0.45"/><path d="M192.82,82.68c3.61-11.61-7.9-22.19-19.23-17.77-8.94,3.48-18.93,10.64-27.17,24.88-6.42,11.1-11,18.45-14.33,23.31a9.33,9.33,0,0,1-15.07.53L89.66,78.68,79.44,86.21s23.07,57.34,49,55C150.85,139.24,180.67,121.81,192.82,82.68Z" fill="#c14d4d" class="target-color"/><path d="M192.82,82.68c3.61-11.61-7.9-22.19-19.23-17.77-8.94,3.48-18.93,10.64-27.17,24.88-6.42,11.1-11,18.45-14.33,23.31a9.33,9.33,0,0,1-15.07.53L89.66,78.68,79.44,86.21s23.07,57.34,49,55C150.85,139.24,180.67,121.81,192.82,82.68Z" opacity="0.09"/><path d="M180,247.37s-1.52,4.23-5.34,4.55-4.83,4.07-1.39,5,12.31-3.45,12.31-3.45l-.25-5.51Z" fill="#c14d4d" class="target-color"/><path d="M228,247.37s1.52,4.23,5.35,4.55,4.82,4.07,1.38,5-12.3-3.45-12.3-3.45l.25-5.51Z" fill="#c14d4d" class="target-color"/><path d="M205.41,42.74s-2.9,5.6-3.52,9.86a3.19,3.19,0,0,0,2.71,3.59,7,7,0,0,0,7.06-2.78L215.5,49a5.66,5.66,0,0,0,0-6.54C213.19,38.77,207,39.24,205.41,42.74Z" fill="#f4a28c"/><polygon points="213.57 47.41 214.49 68.05 203.07 67.74 206.99 52.84 213.57 47.41" fill="#f4a28c"/><path d="M203.76,46.36l-2.55,1.58a1,1,0,0,0,0,1.7L203.25,51Z" fill="#f4a28c"/><path d="M206.06,56.26A7.53,7.53,0,0,0,210,54.49s-.59,3.74-5.14,7Z" fill="#ce8172" opacity="0.31"/><path d="M187.35,62a145.44,145.44,0,0,1,54.47,11.64,21,21,0,0,1,10.6,28.74L222.78,161.5l-54.94-3.25s-10-33.22-8-70.81A27,27,0,0,1,187.35,62Z" fill="#c14d4d" class="target-color"/><path d="M214,54.94l-3.93-2.11-.41-2.1a5,5,0,0,1,0-5.54s-7.55-3.67-5.78-6.83S211.23,31,216.65,35,224.8,46.29,214,54.94Z" fill="#24285b"/><path d="M209.55,50.28s1-2.22,2.58-1.36.23,4.1-2.18,3.45Z" fill="#f4a28c"/><path d="M217.89,65.82a88.4,88.4,0,0,0-20.62-3.3s-9.62,38.39-2,69.31C195.23,131.83,206,92.88,217.89,65.82Z" fill="#fff"/><path d="M239.37,83.71s-18.92,1.56-16.51,14.53,1.92,17.06,1.92,17.06l-10.29,2.64,3.9,16.7a13.9,13.9,0,0,1-6.92,15.4l-18,9.72,29.29,1.74,9.63-19.2,14.4-36.55Z" opacity="0.09"/><path d="M217.89,65.82s.37-4.67-2.94-4.83a17.87,17.87,0,0,0-5.4.47s-9.69-7.59-12.28,1.06C197.27,62.52,211.12,64.06,217.89,65.82Z" fill="#c14d4d" class="target-color"/><path d="M248,81.5s-18.92-.09-14.36,18.9,2.17,69,2.17,69-4.47,11.12,2.81,11.21,10.27-49.54,10.27-49.54Z" fill="#f4a28c"/><path d="M217.89,65.82s.37-4.67-2.94-4.83a17.87,17.87,0,0,0-5.4.47s-9.69-7.59-12.28,1.06C197.27,62.52,211.12,64.06,217.89,65.82Z" fill="#fff" opacity="0.77"/><path d="M211.12,64.37s1.1-3.65-1.2-4.1-4.39-2-4.88,2.73S209.24,68.16,211.12,64.37Z" fill="#24285b"/><path d="M209.59,66.22S202.33,92,202.25,108.5l-7,23.33a103.25,103.25,0,0,1-2.91-25.4s7.51-33.86,12.78-41.78Z" fill="#24285b"/><polygon points="89.66 78.68 87.77 75.32 78.32 82.05 80.62 85.34 89.66 78.68" fill="#fff"/><path d="M86.41,76.49S83.2,64.2,79.72,62.89s-.56,6.28-.56,6.28-10.17,5.65,0,12.48Z" fill="#f4a28c"/><path d="M231.22,248.7l-8.44-87.2-54.94-3.25,9.35,90.45h10.57s-2.64-57.37,5.73-70.51l0-.06a4.79,4.79,0,0,1,8.2.37c11.49,21.43,18.4,70.2,18.4,70.2Z" fill="#24285b"/><polygon points="278.86 180.59 289.82 249.68 285.63 249.68 263.27 180.59 278.86 180.59" fill="#f4a28c"/><polygon points="259.13 180.92 251.43 249.68 247.21 249.68 244.82 180.59 259.13 180.92" fill="#f4a28c"/><path d="M289.82,249.68s2.33,2.95,5.31,2.81,3.42,4.06-1.38,3.63a26.73,26.73,0,0,1-4.41-.76,7.81,7.81,0,0,0-4,.14,1.29,1.29,0,0,1-1.37-.54c-1.36-1.6,2-5.28,2-5.28Z" fill="#c14d4d" class="target-color"/><path d="M247.52,249.68s-2.33,2.95-5.31,2.81-3.42,4.06,1.38,3.63a26.35,26.35,0,0,0,4.41-.76,7.85,7.85,0,0,1,4.05.14,1.28,1.28,0,0,0,1.36-.54c1.36-1.6-2-5.28-2-5.28Z" fill="#c14d4d" class="target-color"/><polygon points="272.68 132.01 288.72 205.68 236.86 209.04 241.66 133.01 272.68 132.01" fill="#24285b"/><path d="M247,60.23s-.64,6.27.36,10.47A3.17,3.17,0,0,0,251.2,73c2.1-.54,4.8-1.86,5.55-5.18l2-5.48a5.65,5.65,0,0,0-2.4-6.09C252.79,53.68,247.21,56.39,247,60.23Z" fill="#f4a28c"/><polygon points="258.14 60.86 259.05 81.5 251.37 81.3 252.84 66.95 258.14 60.86" fill="#f4a28c"/><path d="M246.81,64.2,245,66.6a1,1,0,0,0,.61,1.6l2.4.49Z" fill="#f4a28c"/><path d="M244.82,60.44h0A24.22,24.22,0,0,1,257.38,68l1,1.15s5.59-8,3.48-12.72S247.31,47.1,244.82,60.44Z" fill="#24285b"/><circle cx="262.16" cy="51.49" r="4.03" fill="#24285b"/><path d="M253.63,65.73s.09-2.43,1.91-2.21,1.72,3.72-.77,4Z" fill="#f4a28c"/><path d="M248,77.05h14.31V81.5s24-.45,22.36,15.18-12,35.33-12,35.33l-27.86,1a107.63,107.63,0,0,1-12.94-26.48c-4.57-14.59,16.15-25,16.15-25Z" fill="#c14d4d" class="target-color"/><path d="M275.8,90.64s-10.16,3.1-7.59,17,.52,18.74-15.36,20.35l2.7,5,17.13-1s4-7.91,5-10.83S275.8,90.64,275.8,90.64Z" opacity="0.09"/><rect x="228.65" y="106.29" width="26.02" height="35.1" transform="translate(-10.19 22.31) rotate(-5.18)" fill="#ffd200"/><path d="M259.05,136.45s-2.49-5.39-7.68-4.62-1.52,10.39,5.42,10.63,22.07,17.07,31,8.41,7.54-53.87-4.33-61.1-11.3,16.39-6.25,30.09S286.11,150.15,259.05,136.45Z" fill="#f4a28c"/><circle cx="194.95" cy="140.46" r="2.41" fill="#fff" opacity="0.64"/><circle cx="194.77" cy="150.87" r="2.41" fill="#fff" opacity="0.64"/><path d="M127.73,242.15s-9.65-2.63-11.75-11.61c0,0,15-3,15.37,12.41Z" fill="#c14d4d" opacity="0.58" class="target-color"/><path d="M128.91,241.2s-6.74-10.66-.81-20.61c0,0,11.36,7.21,6.31,20.63Z" fill="#c14d4d" opacity="0.73" class="target-color"/><path d="M130.64,241.2S134.2,230,145,227.82c0,0,2,7.31-7,13.41Z" fill="#c14d4d" class="target-color"/><polygon points="123.65 240.95 125.61 254.32 137.92 254.38 139.73 241.02 123.65 240.95" fill="#24285b"/></svg>